<svg width="120" height="76" viewBox="0 0 120 76" fill="none" xmlns="http://www.w3.org/2000/svg">
<path d="M16 76L32.4 0.599999H44.1L27.3 76H16ZM5.4 76V73.5H39.3V76H5.4ZM0.800001 24.7L8 0.599999H68.4L65.1 24.7H62.1C62.1 18.9667 61.7333 14.5667 61 11.5C60.3333 8.36666 59.0333 6.2 57.1 5C55.1667 3.73333 52.3 3.1 48.5 3.1H26.4C22.5333 3.1 18.5333 4.86666 14.4 8.39999C10.2667 11.8667 6.73333 17.3 3.8 24.7H0.800001Z" fill="#00E676"/>
<path d="M65.4664 76L81.8664 0.599999H93.5664L76.7664 76H65.4664ZM57.8664 76V73.5H93.9664C96.9664 73.5 99.6997 72.9333 102.166 71.8C104.633 70.6667 107.033 68.6333 109.366 65.7C111.7 62.7 114.133 58.4 116.666 52.8H119.666L113.666 76H57.8664ZM72.9664 3.1V0.599999H101.866V3.1H72.9664Z" fill="#F8FE48"/>
</svg>
