<svg width="437" height="74" viewBox="0 0 437 74" fill="none" xmlns="http://www.w3.org/2000/svg">
<path d="M21.3887 72V12.5273H0.148438V0.417969H57.0332V12.5273H35.8418V72H21.3887ZM66.7988 72V1.00391H81.252V59.9395H117.189V72H66.7988ZM122.609 57.2051L136.379 55.1055C136.965 57.7747 138.153 59.8092 139.943 61.209C141.734 62.5762 144.24 63.2598 147.463 63.2598C151.011 63.2598 153.68 62.6087 155.471 61.3066C156.675 60.3952 157.277 59.1745 157.277 57.6445C157.277 56.6029 156.952 55.7402 156.301 55.0566C155.617 54.4056 154.087 53.8034 151.711 53.25C140.643 50.8086 133.628 48.5788 130.666 46.5605C126.564 43.7611 124.514 39.8711 124.514 34.8906C124.514 30.3984 126.288 26.6224 129.836 23.5625C133.384 20.5026 138.885 18.9727 146.34 18.9727C153.436 18.9727 158.71 20.1283 162.16 22.4395C165.611 24.7507 167.987 28.1686 169.289 32.6934L156.35 35.0859C155.796 33.0677 154.738 31.5215 153.176 30.4473C151.646 29.373 149.449 28.8359 146.584 28.8359C142.971 28.8359 140.383 29.3405 138.82 30.3496C137.779 31.0658 137.258 31.9935 137.258 33.1328C137.258 34.1094 137.714 34.9395 138.625 35.623C139.862 36.5345 144.126 37.8203 151.418 39.4805C158.742 41.1406 163.853 43.1751 166.75 45.584C169.615 48.0254 171.047 51.4271 171.047 55.7891C171.047 60.5417 169.061 64.627 165.09 68.0449C161.118 71.4629 155.243 73.1719 147.463 73.1719C140.399 73.1719 134.8 71.7396 130.666 68.875C126.564 66.0104 123.879 62.1204 122.609 57.2051ZM213.137 55.4961L226.809 57.791C225.051 62.804 222.268 66.6289 218.459 69.2656C214.683 71.8698 209.947 73.1719 204.25 73.1719C195.233 73.1719 188.56 70.2259 184.23 64.334C180.812 59.6139 179.104 53.6569 179.104 46.4629C179.104 37.8691 181.35 31.1471 185.842 26.2969C190.334 21.4141 196.014 18.9727 202.883 18.9727C210.598 18.9727 216.685 21.528 221.145 26.6387C225.604 31.7168 227.736 39.513 227.541 50.0273H193.166C193.264 54.0964 194.37 57.2702 196.486 59.5488C198.602 61.7949 201.239 62.918 204.396 62.918C206.545 62.918 208.352 62.332 209.816 61.1602C211.281 59.9883 212.388 58.1003 213.137 55.4961ZM213.918 41.6289C213.82 37.6576 212.795 34.6465 210.842 32.5957C208.889 30.5124 206.512 29.4707 203.713 29.4707C200.718 29.4707 198.244 30.5612 196.291 32.7422C194.338 34.9232 193.378 37.8854 193.41 41.6289H213.918ZM249.025 35.9648L236.574 33.7188C237.974 28.7057 240.383 24.9948 243.801 22.5859C247.219 20.1771 252.297 18.9727 259.035 18.9727C265.155 18.9727 269.712 19.7051 272.707 21.1699C275.702 22.6022 277.801 24.4414 279.006 26.6875C280.243 28.901 280.861 32.9863 280.861 38.9434L280.715 54.959C280.715 59.5163 280.926 62.8854 281.35 65.0664C281.805 67.2148 282.635 69.526 283.84 72H270.266C269.908 71.0885 269.468 69.7376 268.947 67.9473C268.719 67.1335 268.557 66.5964 268.459 66.3359C266.115 68.6146 263.609 70.3236 260.939 71.4629C258.27 72.6022 255.422 73.1719 252.395 73.1719C247.056 73.1719 242.84 71.7233 239.748 68.8262C236.688 65.929 235.158 62.2669 235.158 57.8398C235.158 54.9102 235.858 52.306 237.258 50.0273C238.658 47.7161 240.611 45.9583 243.117 44.7539C245.656 43.5169 249.302 42.4427 254.055 41.5312C260.467 40.3268 264.911 39.2038 267.385 38.1621V36.7949C267.385 34.1582 266.734 32.2865 265.432 31.1797C264.13 30.0404 261.672 29.4707 258.059 29.4707C255.617 29.4707 253.713 29.959 252.346 30.9355C250.979 31.8796 249.872 33.556 249.025 35.9648ZM267.385 47.0977C265.627 47.6836 262.844 48.3835 259.035 49.1973C255.227 50.0111 252.736 50.8086 251.564 51.5898C249.774 52.8594 248.879 54.4707 248.879 56.4238C248.879 58.3444 249.595 60.0046 251.027 61.4043C252.46 62.804 254.283 63.5039 256.496 63.5039C258.97 63.5039 261.33 62.6901 263.576 61.0625C265.236 59.8255 266.327 58.3118 266.848 56.5215C267.206 55.3496 267.385 53.1198 267.385 49.832V47.0977ZM307.57 72H293.85V20.1445H306.594V27.5176C308.775 24.0345 310.728 21.7396 312.453 20.6328C314.211 19.526 316.197 18.9727 318.41 18.9727C321.535 18.9727 324.546 19.8353 327.443 21.5605L323.195 33.5234C320.884 32.026 318.736 31.2773 316.75 31.2773C314.829 31.2773 313.202 31.8145 311.867 32.8887C310.533 33.9303 309.475 35.8346 308.693 38.6016C307.945 41.3685 307.57 47.1628 307.57 55.9844V72ZM378.615 35.4766L365.09 37.918C364.634 35.2161 363.592 33.1816 361.965 31.8145C360.37 30.4473 358.286 29.7637 355.715 29.7637C352.297 29.7637 349.562 30.9518 347.512 33.3281C345.493 35.6719 344.484 39.6107 344.484 45.1445C344.484 51.2969 345.51 55.6426 347.561 58.1816C349.644 60.7207 352.427 61.9902 355.91 61.9902C358.514 61.9902 360.646 61.2578 362.307 59.793C363.967 58.2956 365.139 55.7402 365.822 52.127L379.299 54.4219C377.899 60.6068 375.214 65.278 371.242 68.4355C367.271 71.5931 361.949 73.1719 355.275 73.1719C347.691 73.1719 341.636 70.7793 337.111 65.9941C332.619 61.209 330.373 54.5846 330.373 46.1211C330.373 37.5599 332.635 30.903 337.16 26.1504C341.685 21.3652 347.805 18.9727 355.52 18.9727C361.835 18.9727 366.848 20.3398 370.559 23.0742C374.302 25.776 376.988 29.9102 378.615 35.4766ZM402.736 0.417969V26.7363C407.163 21.5605 412.453 18.9727 418.605 18.9727C421.763 18.9727 424.611 19.5586 427.15 20.7305C429.689 21.9023 431.594 23.3997 432.863 25.2227C434.165 27.0456 435.044 29.0638 435.5 31.2773C435.988 33.4909 436.232 36.9251 436.232 41.5801V72H422.512V44.6074C422.512 39.1712 422.251 35.7207 421.73 34.2559C421.21 32.791 420.282 31.6354 418.947 30.7891C417.645 29.9102 416.001 29.4707 414.016 29.4707C411.737 29.4707 409.702 30.0241 407.912 31.1309C406.122 32.2376 404.803 33.9141 403.957 36.1602C403.143 38.3737 402.736 41.6615 402.736 46.0234V72H389.016V0.417969H402.736Z" fill="#00E676"/>
</svg>
