<svg width="401" height="78" viewBox="0 0 401 78" fill="none" xmlns="http://www.w3.org/2000/svg">
<path d="M16 76L32.4 0.599999H44.1L27.3 76H16ZM5.4 76V73.5H39.3V76H5.4ZM0.800001 24.7L8 0.599999H68.4L65.1 24.7H62.1C62.1 18.9667 61.7333 14.5667 61 11.5C60.3333 8.36666 59.0333 6.2 57.1 5C55.1667 3.73333 52.3 3.1 48.5 3.1H26.4C22.5333 3.1 18.5333 4.86666 14.4 8.39999C10.2667 11.8667 6.73333 17.3 3.8 24.7H0.800001ZM65.4664 76L81.8664 0.599999H93.5664L76.7664 76H65.4664ZM57.8664 76V73.5H93.9664C96.9664 73.5 99.6997 72.9333 102.166 71.8C104.633 70.6667 107.033 68.6333 109.366 65.7C111.7 62.7 114.133 58.4 116.666 52.8H119.666L113.666 76H57.8664ZM72.9664 3.1V0.599999H101.866V3.1H72.9664Z" fill="#00E676"/>
<path d="M133.332 77.3C128.865 77.3 125.432 76.3333 123.032 74.4C120.632 72.4667 119.432 70.2333 119.432 67.7C119.432 66.0333 119.865 64.7667 120.732 63.9C121.665 62.9667 122.865 62.5 124.332 62.5C125.532 62.5 126.432 62.8 127.032 63.4C127.699 64 128.032 64.8 128.032 65.8C128.032 67 127.732 68 127.132 68.8C126.532 69.6 126.232 70.4 126.232 71.2C126.232 72.0667 126.799 72.8 127.932 73.4C129.132 74 130.999 74.3 133.532 74.3C137.599 74.3 140.599 73.5333 142.532 72C144.532 70.4667 145.532 68.6333 145.532 66.5C145.532 64.6333 144.899 63.0667 143.632 61.8C142.365 60.5333 140.799 59.4 138.932 58.4C137.132 57.3333 135.299 56.2333 133.432 55.1C131.565 53.9 129.999 52.4667 128.732 50.8C127.465 49.0667 126.832 46.9 126.832 44.3C126.832 41.8333 127.465 39.5667 128.732 37.5C130.065 35.4333 131.965 33.7667 134.432 32.5C136.899 31.2333 139.865 30.6 143.332 30.6C145.865 30.6 147.999 30.9667 149.732 31.7C151.465 32.3667 152.765 33.3 153.632 34.5C154.565 35.6333 155.032 36.9667 155.032 38.5C155.032 40.0333 154.599 41.2667 153.732 42.2C152.865 43.1333 151.765 43.6 150.432 43.6C149.432 43.6 148.632 43.3333 148.032 42.8C147.432 42.2667 147.132 41.5333 147.132 40.6C147.132 39.6 147.399 38.8333 147.932 38.3C148.465 37.7 148.732 37 148.732 36.2C148.732 35.2667 148.199 34.5667 147.132 34.1C146.065 33.5667 144.632 33.3 142.832 33.3C140.365 33.3 138.299 33.8 136.632 34.8C134.965 35.8 134.132 37.3 134.132 39.3C134.132 41.1 134.732 42.6 135.932 43.8C137.199 45 138.765 46.1 140.632 47.1C142.499 48.1 144.332 49.2 146.132 50.4C147.999 51.6 149.532 53.1 150.732 54.9C151.999 56.6333 152.632 58.8667 152.632 61.6C152.632 64.6667 151.765 67.4 150.032 69.8C148.299 72.1333 145.965 73.9667 143.032 75.3C140.099 76.6333 136.865 77.3 133.332 77.3ZM181.332 77.3C177.199 77.3 173.565 76.3333 170.432 74.4C167.299 72.4667 164.865 69.9667 163.132 66.9C161.465 63.7667 160.632 60.4667 160.632 57C160.632 53.6 161.399 50.3 162.932 47.1C164.532 43.8333 166.632 40.9 169.232 38.3C171.899 35.7 174.899 33.6333 178.232 32.1C181.565 30.5667 184.965 29.8 188.432 29.8C191.232 29.8 193.699 30.3 195.832 31.3C197.965 32.3 199.632 33.7 200.832 35.5C202.099 37.2333 202.732 39.2667 202.732 41.6C202.732 44.4 201.832 46.8667 200.032 49C198.232 51.1333 195.765 52.8 192.632 54C189.499 55.1333 185.899 55.7 181.832 55.7C180.299 55.7 178.699 55.6333 177.032 55.5C175.365 55.3667 173.865 55.2 172.532 55C171.265 54.8 170.399 54.6667 169.932 54.6L170.432 52.1C171.565 52.5667 172.732 52.8667 173.932 53C175.132 53.0667 176.399 53.1 177.732 53.1C181.732 53.1 184.899 52.5 187.232 51.3C189.632 50.1 191.332 48.5333 192.332 46.6C193.399 44.6667 193.932 42.5667 193.932 40.3C193.932 37.6333 193.365 35.7333 192.232 34.6C191.099 33.4 189.599 32.8 187.732 32.8C185.265 32.8 183.065 33.7333 181.132 35.6C179.265 37.4 177.699 39.7667 176.432 42.7C175.165 45.5667 174.199 48.6333 173.532 51.9C172.932 55.1667 172.632 58.2667 172.632 61.2C172.632 65.6667 173.399 68.9667 174.932 71.1C176.465 73.2333 178.932 74.3 182.332 74.3C185.065 74.3 187.965 73.4667 191.032 71.8C194.099 70.1333 196.965 67.1 199.632 62.7L201.632 64.1C199.499 67.9667 196.765 71.1333 193.432 73.6C190.099 76.0667 186.065 77.3 181.332 77.3ZM223.614 77.3C220.814 77.3 218.247 76.5667 215.914 75.1C213.581 73.5667 211.714 71.4 210.314 68.6C208.914 65.8 208.214 62.5 208.214 58.7C208.214 54.8333 208.947 51.1667 210.414 47.7C211.881 44.2333 213.814 41.1667 216.214 38.5C218.681 35.7667 221.414 33.6333 224.414 32.1C227.481 30.5667 230.581 29.8 233.714 29.8C236.781 29.8 239.047 30.5 240.514 31.9C241.981 33.3 243.047 35.0333 243.714 37.1H244.314L242.214 46.2C242.281 45.4667 242.347 44.8333 242.414 44.3C242.481 43.7667 242.514 43.1667 242.514 42.5C242.514 39.6333 241.781 37.3 240.314 35.5C238.914 33.6333 237.114 32.7 234.914 32.7C232.914 32.7 231.081 33.4667 229.414 35C227.814 36.4667 226.381 38.4333 225.114 40.9C223.847 43.3667 222.781 46.0333 221.914 48.9C221.047 51.7 220.381 54.4667 219.914 57.2C219.514 59.9333 219.314 62.3 219.314 64.3C219.314 67.5 219.847 69.9333 220.914 71.6C221.981 73.2667 223.547 74.1 225.614 74.1C227.014 74.1 228.481 73.6667 230.014 72.8C231.547 71.9333 233.081 70.4 234.614 68.2C236.214 66 237.714 62.9333 239.114 59L237.914 69H237.314C235.847 71.6667 233.881 73.7333 231.414 75.2C228.947 76.6 226.347 77.3 223.614 77.3ZM244.914 77.3C243.847 77.3 242.747 77 241.614 76.4C240.481 75.8667 239.547 74.9333 238.814 73.6C238.081 72.2 237.714 70.3 237.714 67.9C237.714 66.9 237.781 65.8 237.914 64.6C238.114 63.4 238.381 62.0667 238.714 60.6L245.714 31H255.414L248.014 61.3C247.547 63.3667 247.181 65.1333 246.914 66.6C246.647 68 246.514 69.1667 246.514 70.1C246.514 72.0333 247.081 73 248.214 73C249.347 73 250.747 72 252.414 70C254.147 67.9333 255.847 64.9 257.514 60.9L259.514 61.8C258.514 64.2667 257.281 66.7 255.814 69.1C254.414 71.4333 252.781 73.4 250.914 75C249.114 76.5333 247.114 77.3 244.914 77.3ZM264.485 76L275.185 31H285.885L274.785 76H264.485ZM265.785 33.5V31H284.685V33.5H265.785ZM279.585 56.5L283.385 40.2H284.085C285.885 37.3333 287.985 34.9 290.385 32.9C292.785 30.8333 295.218 29.8 297.685 29.8C298.885 29.8 299.885 30.0667 300.685 30.6C301.552 31.0667 302.218 31.7 302.685 32.5C303.152 33.3 303.385 34.2333 303.385 35.3C303.385 36.6333 302.952 37.8667 302.085 39C301.285 40.1333 299.952 40.7 298.085 40.7C296.552 40.7 295.452 40.3667 294.785 39.7C294.185 38.9667 293.718 38.2667 293.385 37.6C293.052 36.8667 292.552 36.5 291.885 36.5C291.085 36.5 290.118 37.0333 288.985 38.1C287.852 39.1667 286.652 40.6333 285.385 42.5C284.185 44.3667 283.052 46.5 281.985 48.9C280.918 51.3 280.118 53.8333 279.585 56.5ZM322.134 77.3C318.267 77.3 314.9 76.3 312.034 74.3C309.234 72.3 307.067 69.7667 305.534 66.7C304.067 63.5667 303.334 60.3 303.334 56.9C303.334 53.4333 304.067 50.1 305.534 46.9C307.067 43.6333 309.134 40.7333 311.734 38.2C314.4 35.6 317.434 33.5667 320.834 32.1C324.3 30.5667 327.934 29.8 331.734 29.8C334.4 29.8 336.7 30.2 338.634 31C340.634 31.7333 342.167 32.8 343.234 34.2C344.367 35.6 344.934 37.2333 344.934 39.1C344.934 40.9667 344.4 42.4 343.334 43.4C342.267 44.4 340.867 44.9 339.134 44.9C337.6 44.9 336.3 44.5 335.234 43.7C334.167 42.9 333.634 41.7 333.634 40.1C333.634 38.9 333.867 38 334.334 37.4C334.867 36.8 335.367 36.3333 335.834 36C336.367 35.6667 336.634 35.2667 336.634 34.8C336.634 34.0667 336.067 33.5667 334.934 33.3C333.8 32.9667 332.667 32.8 331.534 32.8C329 32.8 326.767 33.5 324.834 34.9C322.9 36.2333 321.234 38.0333 319.834 40.3C318.434 42.5 317.3 44.9333 316.434 47.6C315.567 50.2 314.9 52.8333 314.434 55.5C314.034 58.1 313.834 60.4667 313.834 62.6C313.834 66.2667 314.5 69.1333 315.834 71.2C317.234 73.2667 319.6 74.3 322.934 74.3C325.734 74.3 328.534 73.4333 331.334 71.7C334.2 69.9667 336.867 66.9667 339.334 62.7L341.334 64.1C339.067 68.3667 336.3 71.6333 333.034 73.9C329.767 76.1667 326.134 77.3 322.134 77.3ZM346.634 76L364.434 0.599999H375.134L356.934 76H346.634ZM383.534 77.3C381.201 77.3 379.334 76.6667 377.934 75.4C376.601 74.1333 375.934 72.4667 375.934 70.4C375.934 69.8667 375.968 69.3333 376.034 68.8C376.168 68.2667 376.268 67.7667 376.334 67.3L382.934 39.9C383.068 39.3667 383.168 38.9 383.234 38.5C383.301 38.1 383.334 37.7 383.334 37.3C383.334 36.1667 383.001 35.3333 382.334 34.8C381.668 34.2667 380.768 34 379.634 34C377.634 34 375.501 34.8 373.234 36.4C370.968 38 368.868 40.2 366.934 43C365.068 45.7333 363.634 48.8667 362.634 52.4L365.434 39.7H366.134C368.134 37.1667 370.734 34.9 373.934 32.9C377.134 30.8333 380.568 29.8 384.234 29.8C386.768 29.8 388.934 30.4333 390.734 31.7C392.601 32.9667 393.534 35 393.534 37.8C393.534 39 393.334 40.4667 392.934 42.2L386.834 66.3C386.634 67.1667 386.501 67.8667 386.434 68.4C386.368 68.9333 386.334 69.3667 386.334 69.7C386.334 71.3667 387.068 72.2 388.534 72.2C390.001 72.2 391.568 71.2333 393.234 69.3C394.968 67.3667 396.868 64.0667 398.934 59.4L400.934 60.3C399.668 63.2333 398.201 66 396.534 68.6C394.868 71.2 392.968 73.3 390.834 74.9C388.701 76.5 386.268 77.3 383.534 77.3ZM354.534 3.1V0.599999H373.934V3.1H354.534Z" fill="#F8FE48"/>
</svg>
